<svg width="133" height="57" viewBox="0 0 133 57" fill="none" xmlns="http://www.w3.org/2000/svg">
<path fill-rule="evenodd" clip-rule="evenodd" d="M79.21 34.59C81.62 38.3 86.93 46.83 86.93 46.83C86.93 46.83 79.2 48.11 76.53 43.6C75.8329 42.4299 75.131 41.0745 74.4255 39.7121C73.6838 38.28 72.9383 36.8402 72.19 35.6C72.0374 35.3593 71.8468 35.1427 71.5031 34.752L71.503 34.7519L71.5028 34.7517C71.261 34.4769 70.9435 34.116 70.51 33.6C70.51 36.6 70.51 42.84 70.58 45.6H71.34V47H62.14V45.65H63L63.19 8.84H62.54V7.49H71.74V8.84H71L70.9707 9.56804C70.8247 13.1838 70.5212 20.7002 70.4 25.49C70.4 25.5739 70.3996 25.6587 70.3992 25.7438V25.7453C70.392 27.1314 70.3842 28.645 72.23 29.05C73.108 29.2977 74.0397 29.2788 74.9069 28.9957C75.774 28.7126 76.5374 28.178 77.1 27.46C80.89 23.01 81.1 14.46 78.16 8.82C75.68 4.08 66.77 0.820003 61.24 2.61C54.25 4.86 50.54 9 50.42 16.1V18.56C50.67 24.8 53.78 27.13 59.8 25.56C60.1586 25.3995 60.5471 25.3165 60.94 25.3165C61.3329 25.3165 61.7214 25.3995 62.08 25.56C62.53 28.21 61.31 30.01 58.68 30.95C54.61 32.42 49.51 30.95 47.19 27.34C44.87 23.73 43.83 19.78 45 15.55C47.94 4.45 57.38 -1.1 69.25 0.180003C74.0706 0.548373 78.6164 2.56873 82.12 5.9C83.8717 7.51123 85.2382 9.49601 86.1184 11.7072C86.9986 13.9184 87.3698 16.2994 87.2046 18.6736C87.0394 21.0478 86.342 23.3544 85.1641 25.4225C83.9862 27.4905 82.3579 29.2669 80.4 30.62C78.8 31.76 78 32.73 79.21 34.59ZM42.5904 45.6502V47.0002H33.4004V45.6502H34.4604V24.3302C34.4604 24.2427 34.3978 24.1551 34.2898 24.004C34.2251 23.9134 34.1441 23.8001 34.0504 23.6502C33.2413 26.7575 32.8082 29.8962 32.3773 33.0194C31.8069 37.1533 31.2402 41.2599 29.8104 45.2302C28.1333 41.44 27.4594 37.4655 26.7824 33.4725C26.2483 30.3227 25.7123 27.1615 24.6804 24.0702V37.6302C24.6804 38.0085 24.6827 38.3864 24.6849 38.7641V38.7643C24.7009 41.482 24.7169 44.1861 23.9004 46.8902C20.7404 57.1802 10.4304 57.6002 4.28042 54.1302C2.87846 53.2746 1.74159 52.0465 0.996497 50.5828C0.251402 49.1191 -0.0726603 47.4773 0.0604174 45.8402C0.610417 42.2902 2.56042 39.3102 5.90042 39.3102C6.34597 39.3182 6.78479 39.4204 7.18807 39.6099C7.59136 39.7995 7.94999 40.0723 8.24042 40.4102C8.24042 40.4102 5.30042 45.1502 5.76042 48.2502C5.8843 49.5706 6.44214 50.8128 7.34676 51.7825C8.25139 52.7523 9.45181 53.395 10.7604 53.6102C13.3004 54.0502 15.1804 52.9002 16.5904 50.1002C17.3268 48.6274 17.6908 46.9964 17.6504 45.3502C17.5629 34.7748 17.4185 15.3209 17.3739 9.31069L17.3739 9.30529L17.3704 8.84023H16.3704V7.49023H25.5704V8.84023H24.8404L25.9304 13.1202C25.9304 13.1202 28.0904 23.9302 29.3504 30.1202C30.6287 28.1738 31.3545 25.9169 31.4504 23.5902C32.0004 19.3002 33.4604 11.8702 34.0704 8.84023H33.1804V7.49023H42.3804V8.84023H41.5104L41.7904 45.6502H42.5904ZM130.11 52.8102C131.496 51.3713 132.389 49.5294 132.66 47.5502C133.46 42.7302 124.83 40.1102 124.83 40.1102C124.83 40.1102 126.08 42.3302 126.6 43.4902C127.296 44.8877 127.532 46.4697 127.273 48.0093C127.014 49.5489 126.274 50.967 125.16 52.0602C122.04 55.1602 117.62 54.2902 115.92 50.2902C115.125 48.1262 114.785 45.8216 114.92 43.5202C114.935 39.675 114.96 34.5139 114.986 29.3016C115.028 20.7691 115.07 12.0993 115.07 8.84023H116.07V7.49023H106.88V8.83023H107.88C107.888 9.56649 107.905 10.5304 107.922 11.5416C107.95 13.1262 107.98 14.827 107.98 15.9502C108.01 18.1302 107.08 19.3302 104.76 19.3302H101.29C98.96 19.3602 98.03 18.1202 98.09 15.9302C98.135 14.193 98.2286 11.3295 98.2906 9.43293C98.2975 9.22251 98.304 9.02399 98.31 8.84023H99.19V7.49023H90V8.84023H91V45.6502H90V47.0002H99.15V45.6402H98.26C98.2537 44.8433 98.2457 43.7343 98.2364 42.4343C98.2008 37.5028 98.1454 29.8226 98.09 26.0002C98.05 23.6002 99 22.2702 101.57 22.3602H103.57C107.47 22.4602 107.89 22.7902 107.99 26.5402C108.037 28.1735 108.039 29.808 108.041 31.442C108.046 34.7102 108.05 37.9769 108.41 41.2302C108.85 45.2202 109.61 49.9202 112.61 52.8702C117.05 57.2802 125.68 57.1502 130.11 52.8102Z" fill="url(#paint0_linear_45_20767)"/>
<defs>
<linearGradient id="paint0_linear_45_20767" x1="1" y1="56.1219" x2="143.498" y2="55.541" gradientUnits="userSpaceOnUse">
<stop stop-color="#A78D43"/>
<stop offset="0.027778" stop-color="#A78D43"/>
<stop offset="0.256945" stop-color="#FCF697"/>
<stop offset="0.626736" stop-color="#AB8B4D"/>
<stop offset="0.798611" stop-color="#FCF697"/>
<stop offset="1" stop-color="#A78D43"/>
</linearGradient>
</defs>
</svg>
