<svg xmlns="http://www.w3.org/2000/svg" viewBox="0 0 2214.59 1569.48"><defs><style>.cls-1{fill:#daebe8;}.cls-2{opacity:0.4;}.cls-3{fill:#fff;}.cls-4{opacity:0.6;}.cls-5{fill:#acc9c5;}.cls-6{fill:#92bcb5;}.cls-7{fill:#68a1bf;}.cls-8{fill:#ccd39c;}.cls-9{fill:#c2c68e;}.cls-10{opacity:0.5;}.cls-11{fill:#331832;}.cls-12{fill:#73b3ce;}.cls-13{fill:#ec865c;}.cls-14{fill:#ffb27d;}.cls-15{fill:#e9845c;}.cls-16{fill:#080435;}.cls-17{fill:#92a5e6;}.cls-18{fill:#ef8062;}.cls-19{fill:#ffc9bc;}.cls-20{opacity:0.3;}.cls-21{fill:#d05f47;}.cls-22{opacity:0.7;}</style></defs><g id="圖層_2" data-name="圖層 2"><g id="_Layer_" data-name="&lt;Layer&gt;"><path class="cls-1" d="M2214.59,294.29v977.25c0,156.71-130.74,262.4-288.71,283.74-78.37,10.58-157.75,14.79-252.93,14.14-36.65-.26-75.65-1.23-117.85-2.85-34.44-1.31-71-3-110.17-5.17h0c-81.3-4.4-173.72-10.41-281.42-17.65-71.68-4.82-167.17-5.42-270.84-4q-28.7.4-58.11,1c-69.12,1.36-140.48,3.42-209.77,5.55-128.24,4-249.39,8.24-336.07,9C129.27,1556.68,0,1428.25,0,1271.54V294.29c0-156.7,129.54-293,288.71-283.74C436.54,19.11,654,53,880.62,32.25c269.57-24.68,781.23-45.65,1045.26-21.7C2084.66,25,2214.59,137.59,2214.59,294.29Z"/><g class="cls-2"><path class="cls-3" d="M1441.56,226.54s25.66-49.38,90.6-43.2,57.21,55.69,88.14,51,74.22,0,83.49,30.94,51,13.92,52.58,40.21-47.94,44.86-105.15,21.66-85,18-165.44,10.56-90.37-16.75-138-12.11-46.46-28-24.81-49.61S1432.28,256.44,1441.56,226.54Z"/></g><g class="cls-4"><path class="cls-3" d="M689.58,180.55s14.65-28.19,51.72-24.65S774,187.68,791.61,185s42.37,0,47.67,17.66,29.12,7.94,30,23-27.37,25.61-60,12.37-48.54,10.29-94.44,6-51.59-9.56-78.75-6.91-26.53-16-14.17-28.32S684.28,197.63,689.58,180.55Z"/></g><g class="cls-4"><path class="cls-3" d="M1257.65,118.06s12.47-24,44-21,27.82,27.07,42.85,24.81,36.08,0,40.59,15,24.81,6.77,25.56,19.55-23.3,21.81-51.11,10.53-41.35,8.76-80.44,5.14-43.93-8.15-67.06-5.89-22.59-13.59-12.07-24.12S1253.14,132.6,1257.65,118.06Z"/></g><path class="cls-5" d="M628.84,393.37c-16.65,15.86-26.65,15.29-32.87,8.76s-6.3-16.54,10.35-32.4c30.34-28.91,56.27-31.05,56.27-31.05S659.62,364,628.84,393.37Z"/><path class="cls-5" d="M661.89,538.71c-10.62,20.41-20.26,23.1-28.26,18.93s-11.32-13.61-.69-34c19.35-37.16,43.19-47.58,43.19-47.58S681.53,501,661.89,538.71Z"/><path class="cls-5" d="M741.51,918.49l-4.31.62c-.1-.66-10.14-67.48-54.68-158.35-41.11-83.85-120.84-205.92-267.27-311.29l2.55-3.54C565,551.89,645.19,674.67,686.51,759,731.31,850.47,741.41,917.82,741.51,918.49Z"/><path class="cls-5" d="M570.6,586.49l-4.11-1.44C619.12,436,532.2,290.29,531.31,288.84l3.72-2.27C535.93,288.05,623.93,435.42,570.6,586.49Z"/><path class="cls-5" d="M490.65,532.68c-43.06,10.1-80.65-3.83-81.08-4l1.55-4.07c.47.18,48.63,18,97.58-2.28l1.67,4A128.25,128.25,0,0,1,490.65,532.68Z"/><path class="cls-5" d="M406.88,426.5c27.17,15,31.73,25.82,27.37,33.72s-16,9.84-43.12-5.13c-49.5-27.27-65.54-54.75-65.54-54.75S356.67,398.83,406.88,426.5Z"/><path class="cls-5" d="M417.73,512.32c30.41,6.08,38,15.06,36.26,23.9s-12.25,14.2-42.67,8.11c-55.41-11.08-79-32.44-79-32.44S361.51,501.07,417.73,512.32Z"/><path class="cls-5" d="M518.17,455c10.22,20.61,6.71,30-1.37,34s-17.66,1.12-27.88-19.48c-18.62-37.54-13-62.94-13-62.94S499.28,416.91,518.17,455Z"/><path class="cls-5" d="M539.94,267.31c13.93,27.72,11.54,39.25,3.48,43.29s-18.73-.92-32.65-28.64c-25.37-50.49-23-82.22-23-82.22S514.21,216.08,539.94,267.31Z"/><path class="cls-5" d="M976,1347s-404.44-820.79-623-702.67S745.81,1134.3,856,1377Z"/><path class="cls-6" d="M820.78,1253.44S398,718.06,225.71,844.78s379.93,292.4,497,452.38Z"/><path class="cls-7" d="M766.13,1278.38c-78.83-112-202.32-205.54-292-264.33C376.85,950.31,297.29,912.62,296.5,912.24l2.33-4.94c.8.37,80.71,38.23,178.28,102.17,90.1,59.06,214.16,153.1,293.49,265.76Z"/><path class="cls-8" d="M892.66,1539.75c-89.42,1.26-176.68,3.72-267.88,6.53a92.34,92.34,0,0,1-4.92-10.55c-51.49-53.1-42.54-45.19-158.3-24.63s-89.08-129.69-187.6-158c-99.53-28.52-204.57-109.41-137.78-188.77,67.08-79.54,135.06-51.25,213.52-39,53.51,8.35,135-77.43,208.12-87.15,45.6-6,72.1,18.53,95.19,57.6,0,0,0,0,0,0,47.3,80.84,80.82,98.25,122.89,103.5h0c14.07,1.76,28.2,2.09,48.26,3.23,31.92,1.89,96.63,9.22,120.43,30.52C1049,1326.43,1003.23,1457.49,892.66,1539.75Z"/><path class="cls-9" d="M874.87,1421.58l4.12-5.33c-2.35-1.82-241-182.52-758.56-229.07l-.6,6.72C635.39,1240.27,872.53,1419.77,874.87,1421.58Z"/><path class="cls-9" d="M565.68,1200c72.45-57,87.73-105,88.34-107l-6.45-2c-.14.47-15.46,48.19-86.06,103.72Z"/><path class="cls-9" d="M549,1271.78c21.45-32.58,22.87-81.48,4.11-141.42a450.33,450.33,0,0,0-34.89-81.09l-5.83,3.38c.81,1.4,80.31,140.52,31,215.43Z"/><path class="cls-9" d="M413.38,1251c8.59-6.27,13.28-10.4,13.5-10.59l-4.5-5c-1,.88-99.88,87.82-236.45,74.61l-.64,6.71C295.33,1327.38,381.39,1274.38,413.38,1251Z"/><path class="cls-9" d="M335.84,1402.09c33.54-32.77,44.76-67,48.27-89.93,3.82-25-.32-42-.5-42.73l-6.54,1.63c.16.65,15.47,66.21-45.94,126.21Z"/><path class="cls-5" d="M171.86,1042.07c-21.43-9-25-18.45-21.43-26.85s12.74-12.54,34.17-3.56c39,16.36,51.52,39.46,51.52,39.46S211.46,1058.67,171.86,1042.07Z"/><g class="cls-4"><path class="cls-5" d="M1245.61,1344.42s291.17-1028.06,567.16-938.57-347.74,645.66-423,947.62Z"/></g><path class="cls-8" d="M1451.68,1290.51S1808,674.13,2004.94,779.15s-348.51,359-445.4,541.79Z"/><path class="cls-9" d="M1511.87,1308.06c64.62-127.45,178.11-242.63,261.93-316.81C1864.68,910.82,1941.19,860,1942,859.45l-3.15-4.76c-.77.51-77.61,51.59-168.79,132.28-84.19,74.51-198.21,190.26-263.24,318.51Z"/><path class="cls-5" d="M1979.78,1398.11c-22.79,6.52-38.75,20.78-51.79,40.46h0c-30.58,45.93-39.12,109.33-111.15,96.53-85-15.15-92.53-22.41-119.89,3.58a137.15,137.15,0,0,0-23.81,30.42c-.3.49-49.92.07-118-2.54-61.16-2.33-108.79-5.17-110.18-5.17-92.46-67.52-141.86-183.41-47.2-267.94,11.81-10.57,30.73-15.18,46.51-18.72,95.92-21.52,132.31,17.78,197.82-85.66h0c12.08-19,20.08-37.38,39.28-51.71,72.74-54.24,173,72.29,232.85,63,68.12-10.58,127.15-35.1,185.31,34C2157.43,1303.22,2066,1373.51,1979.78,1398.11Z"/><g class="cls-10"><path class="cls-7" d="M1458.13,1457.14l-3.58-4.63c2-1.58,209.36-158.29,658.6-198.35l.52,5.83C1666.12,1299.91,1460.16,1455.57,1458.13,1457.14Z"/><path class="cls-7" d="M1726.66,1265c-62.86-49.51-76.09-91.23-76.62-93l5.6-1.7c.12.41,13.39,41.84,74.64,90.09Z"/><path class="cls-7" d="M1741.07,1327.32c-18.6-28.3-19.8-70.75-3.48-122.76a391.35,391.35,0,0,1,30.34-70.37l5.06,2.94c-.71,1.21-69.8,121.92-27,187Z"/><path class="cls-7" d="M1858.82,1309.39c-7.45-5.45-11.52-9-11.71-9.21l3.91-4.35c.85.76,86.64,76.3,205.19,64.92l.56,5.82C1961.25,1375.74,1886.58,1329.68,1858.82,1309.39Z"/><path class="cls-7" d="M1926,1440.56c-29.09-28.46-38.81-58.17-41.84-78.09-3.3-21.68.31-36.47.46-37.09l5.68,1.42c-.14.57-13.47,57.47,39.8,109.58Z"/></g><path class="cls-5" d="M1432.75,561.2c2.58-26.92,11.9-34.11,22.45-33.1s18.34,9.83,15.76,36.75c-4.69,49-26.06,70.91-26.06,70.91S1428,611,1432.75,561.2Z"/><path class="cls-5" d="M1972.39,1109.43c28.33-4.86,38.31,2.7,40.21,13.8s-5,21.56-33.31,26.42c-51.62,8.86-80-7-80-7S1920,1118.42,1972.39,1109.43Z"/><path class="cls-5" d="M1887.65,1065.1c15.27-22.33,26.91-24.11,35.65-18.13s11.3,17.47-4,39.8c-27.82,40.66-57.1,49.47-57.1,49.47S1859.44,1106.35,1887.65,1065.1Z"/><path class="cls-11" d="M905.22,433.12s17.84,152.78-59.71,156.93C647.43,600.67,538.45,741.88,654,763.77c51.41,9.74-21.3,68-129.55,129.8-127.76,73-122.63,303.91,96.76,330.47s365-140.76,479.68-63.12,306.52-90.52,404.52-84.62,177.49,19.92,206-62.9-235.45-102.75-221.92-237-237.3-147.77-182.13-171.94c198.07-86.77-54.23-152-122.08-253.29C1139.62,282.94,905.22,433.12,905.22,433.12Z"/><path class="cls-12" d="M1555.1,1566.57c-359.75-13.72-351.18-33.12-720.55-25.84-5.16-191.49,5-467.63,74.65-647.1-18-11.71-104.87-68.31-120.2-78.29,0-.1,2.37-3.64,2.55-3.82,8.11-11.37,36.68-46.2,100.55-76.77,4.16,0,81.65-48.42,253-51.8,29.44-.54,58.64,2.89,87.59,8.21.77.38,43.13,7.28,64.42,14,74.88,23.32,125.56,47.58,159.43,68.31,51.85,31.73,63.4,53.89,63.84,54.33h0c0,1.28-35.91,73.49-86.72,96.73,1.53,4.64,22.55,73,22.55,73.46C1512.19,1185.1,1552.91,1372.05,1555.1,1566.57Z"/><ellipse class="cls-11" cx="890.17" cy="852.65" rx="30.14" ry="107.83" transform="translate(-218.84 1390.7) rotate(-69.65)"/><path class="cls-11" d="M1198,417.28s-1.63,21.43,16.89,61.91c27.09,59.24-39.66,96.2-60.55,81.36-2.59-1.83-16.14-107.68-16.14-107.68l20.52-17Z"/><path class="cls-11" d="M1111.91,433.26s66.24,51,56.13,115.36c0,0,27.32-41.19,25.94-54.75s-17.75-60.75-17.75-60.75Z"/><path class="cls-13" d="M1141.15,502.38a2.32,2.32,0,0,1-2.28-1.95,2.29,2.29,0,0,1,1.91-2.63c.15,0,14.33-2.43,19.5-11.64a2.31,2.31,0,1,1,4,2.26c-6.26,11.17-22.11,13.82-22.79,13.93Z"/><path class="cls-14" d="M1233.05,691.25c-17.6-4.49-35.46-10.81-48.81-32l-43.09-80.53-10.86-5.12-71.36-113.29,28.81,124.48,17.31,74.72s5.31,19.24-25.25,26.62c0,0-22,64.27,18.56,68.84C1164.45,762.45,1233.18,691.29,1233.05,691.25Z"/><path class="cls-15" d="M1142.22,590.77c.09.7.16,1.4.2,2.1,3.36,41.06-37.08,66.83-37.08,66.83l-.29-.18-17.31-74.72c12.51-6.94,30.63-14.9,42.55-11.19C1136.52,575.55,1141,580.67,1142.22,590.77Z"/><path class="cls-14" d="M1079.26,627.29c-35,5.49-69.37-8.32-95.7-34.72a152.79,152.79,0,0,1-22.79-29.36,175.65,175.65,0,0,1-22.69-63.31c-12.64-80.6,30.08-154.24,95.4-164.49S1162,382.2,1174.67,462.8,1144.59,617.05,1079.26,627.29Z"/><ellipse class="cls-14" cx="1150.44" cy="463.06" rx="34.02" ry="27.06" transform="translate(138.69 1180.21) rotate(-57.25)"/><path class="cls-3" d="M1009.15,578.22s39.37,1.62,78.73-25.93c0,0,.6,35.77-33.35,43.54C1025.68,602.43,1009.15,578.22,1009.15,578.22Z"/><path class="cls-16" d="M1045.15,484.55a2.72,2.72,0,0,1-1.1-5c.76-.45,17.41-12.61,36,2.3a2.75,2.75,0,0,1,.5,3.82c-.92,1.2-2.45,1.14-3.82.5-13.66-6.36-29.31-2.31-29.94-1.94A2.69,2.69,0,0,1,1045.15,484.55Z"/><path class="cls-16" d="M951.31,513.64a2.72,2.72,0,0,1-2.94-4.24c.53-.71,11.29-18.29,34.21-11.61a2.76,2.76,0,0,1,1.92,3.35c-.4,1.45-1.84,2-3.35,1.92-15-.69-28,9-28.42,9.61A2.71,2.71,0,0,1,951.31,513.64Z"/><path class="cls-16" d="M1057.47,519.94c-6.65,0-10.56-2.26-10.88-2.46a3.73,3.73,0,0,1,3.81-6.41c.56.32,12.11,6.42,30.95-9.1a3.73,3.73,0,1,1,4.74,5.76C1074.25,517.49,1064.39,519.94,1057.47,519.94Z"/><path class="cls-16" d="M977,542.59c-6.65,0-10.56-2.26-10.88-2.46a3.73,3.73,0,0,1,3.81-6.41c.59.33,12.14,6.4,31-9.1a3.73,3.73,0,1,1,4.74,5.76C993.77,540.14,983.9,542.59,977,542.59Z"/><path class="cls-17" d="M1520.38,827.75s-38.77,72.27-86.74,96.74l32,117.26-102.34-26.65L1369.67,884l119.4-68.23Z"/><path class="cls-14" d="M802.51,824.14S534.42,1130,571,1204.73s173.43,125,300.62-60.55C947.51,1033.42,934.82,811.8,802.51,824.14Z"/><path class="cls-11" d="M957.14,406.35s28.5,42.64,114.61,26.77c62.89-11.59,103.33,12.1,108,63.16s222.6,17.47,222.6,17.47,48.86-32.08-89.13-85.91c-58.94-23-123.15-233.19-347-153.52C839.46,319.44,805.89,430,861.25,490.54c67,73.23-49.38,102.65-49.38,102.65l136,10.45S919,544.44,938.08,499.9,932,446.21,957.14,406.35Z"/><path class="cls-14" d="M1577.38,915.11s108.25,148.29,104.17,206.68-176.1-84.45-176.1-84.45Z"/><path class="cls-18" d="M1102.07,832.4S933.83,665.73,754.81,766.71c-187.28,105.66-38.55,401.67,164.67,522.9s255.81,170.6,299,158.41,621.47-534,399.7-820.89C1459.07,421.27,1182.74,476.42,1102.07,832.4Z"/><path class="cls-19" d="M1555.18,682.52S1533.41,595.94,1436,577.38s-143.25,27.08-122.4,55.34,88.57,1.59,118.3,42S1563.21,760.36,1555.18,682.52Z"/><g class="cls-20"><path class="cls-21" d="M849.23,978.76C834,957.11,778.56,842.69,741.51,860.35c-50,23.83-19.23,180.66,47.5,264.22s306.81,292.36,408.45,276.46c51.38-8,166.58-106.11,160.82-168.4-17.34-187.58-232.57-8.66-281.57-84.42S893.49,1041.65,849.23,978.76Z"/></g><path class="cls-14" d="M1025.87,1183.78s-212-64.77-309.36-84.93c-87.26-18.06-151.59,13-145.56,105.88,4.45,68.75,105,97.81,253.71,107.26s302.84-7.57,302.84-7.57C1135.22,1279.89,1025.87,1183.78,1025.87,1183.78Z"/><path class="cls-14" d="M1117.31,1304.23c-54.49,1-119.42-13.69-119.42-13.69s-22.84-91.34-15.46-100.25c28.51-34.4,82.84-61.32,101.69-80.23,8.17-8.2,37.54-33.87,46.75-26.8,8,6.15-5.67,37.69-14,51.91,75.07-13.45,190.66.69,35.4,40.35l.06.26c16.07-2.56,125.77-16.29,120.78,6.58-4.41,20.19-88.28,32.55-114.67,37,0,.25,0,.5,0,.75,27.22-2.22,109.17-11.67,98.8,6.14-13,22.35-98.49,43.9-98.49,43.9s89.07-18.16,77.2,9.49c-8.09,18.86-82.66,22.3-108.52,24.74A42.66,42.66,0,0,1,1117.31,1304.23Z"/><path class="cls-14" d="M1155.05,1058c49.44,22.93,114.76,35.76,114.76,35.76s57.82-74.31,54.67-85.45c-12.17-43-51-89.57-60.57-114.49-4.16-10.8-20.64-46.15-31.93-43.41-9.81,2.39-10,36.76-8.2,53.13-63.23-42.65-174.67-76.46-48.7,22.59l-.16.21c-13.67-8.83-108.45-65.74-113.13-42.81-4.12,20.24,67.59,65.47,89.91,80.24-.11.22-.23.44-.34.67-24-13-95.14-54.82-92.84-34.33,2.87,25.71,72.33,80,72.33,80s-74.13-52.62-74.45-22.53c-.22,20.52,66.58,53.81,89.25,66.5A43.06,43.06,0,0,0,1155.05,1058Z"/><path class="cls-15" d="M724.84,1102.19a1.45,1.45,0,0,1-.35,0c-28.43-6.58-65.7-1.79-66.07-1.74a1.57,1.57,0,1,1-.41-3.11c.37,0,38.17-4.89,67.19,1.8a1.57,1.57,0,0,1-.36,3.09Z"/><path class="cls-14" d="M1287.38,984.78s204.63,7.65,289,36.2c82.75,28,135,107.55,86.44,152.93-50.33,47-126,32.35-265.85-19.14s-206.52-82.67-206.52-82.67C1193.36,1046.54,1287.38,984.78,1287.38,984.78Z"/><path class="cls-15" d="M1629.16,1050a1.58,1.58,0,0,1-1-.36c-14-11.59-37.22-21.37-37.45-21.46a1.57,1.57,0,0,1-.83-2.05,1.55,1.55,0,0,1,2-.84c1,.4,23.83,10.06,38.23,22a1.55,1.55,0,0,1,.21,2.19A1.52,1.52,0,0,1,1629.16,1050Z"/><g class="cls-22"><path class="cls-18" d="M1091,528.82c-1.32-16.87,13.51-22.43,23.76-23.76,16-2.08,24.62,10.16,24.62,20.5,0,15.44-10.36,26.43-23.43,24.35C1105.77,548.29,1092.22,543.94,1091,528.82Z"/></g><g class="cls-10"><path class="cls-18" d="M984.73,592.21q-.57.19-1.17.36a152.79,152.79,0,0,1-22.79-29.36,19,19,0,0,1,3.27-3.82c7.32-6.52,17.2-.13,21.83,7.51C992.79,578.32,992.39,589.68,984.73,592.21Z"/></g></g></g></svg>