<svg width="302" height="302" viewBox="0 0 302 302" fill="none" xmlns="http://www.w3.org/2000/svg">
<path fill-rule="evenodd" clip-rule="evenodd" d="M199.698 225.642C197.944 240.121 189.17 251.717 175.58 257.524C168.012 260.758 157.85 262.505 149.807 261.956C137.259 261.477 125.471 258.425 114.605 252.847C110.723 250.853 104.936 246.872 100.493 243.143C99.3673 242.201 99.2337 241.597 99.9784 240.54C100.38 239.934 101.122 238.84 102.761 236.439C105.137 232.957 105.434 232.52 105.701 232.112C106.462 230.945 107.697 230.843 108.916 231.802C109.044 231.902 109.044 231.902 109.14 231.977C109.34 232.132 109.34 232.132 109.812 232.499C110.29 232.871 110.573 233.09 110.687 233.176C122.406 242.355 136.054 247.648 149.833 248.177C169.003 247.916 182.788 239.296 185.258 226.061C187.974 211.495 176.539 198.912 154.168 191.899C147.172 189.706 129.487 182.627 126.226 180.714C110.913 171.73 103.753 159.961 104.771 145.426C106.33 125.277 125.035 110.249 148.67 110.148C159.24 110.127 169.787 112.323 179.919 116.593C183.507 118.105 189.912 121.591 192.124 123.242C193.398 124.177 193.649 125.268 192.919 126.444C192.512 127.126 191.838 128.207 190.417 130.461L190.401 130.486C188.531 133.455 188.472 133.548 188.043 134.242C187.302 135.371 186.43 135.476 185.094 134.628C174.251 127.344 162.232 123.68 149.013 123.415C132.555 123.741 120.22 133.535 119.409 146.878C119.193 158.929 128.232 167.727 147.756 174.435C187.386 187.17 202.552 202.101 199.698 225.642ZM150.755 17.6042C176.556 17.6042 197.587 42.0895 198.571 72.7399H102.939C103.923 42.0895 124.954 17.6042 150.755 17.6042ZM284.286 78.5024C284.286 75.3198 281.722 72.7399 278.562 72.7399H216.576C215.055 32.2701 186.168 0 150.755 0C115.343 0 86.4559 32.2701 84.935 72.7399L22.8602 72.7411C19.7477 72.7976 17.2418 75.356 17.2418 78.5024C17.2418 78.6529 17.2474 78.8022 17.2586 78.9492H17.2148L26.0636 274.009C26.0647 274.552 26.0849 275.1 26.1254 275.65C26.1344 275.775 26.1445 275.898 26.1546 276.021L26.1737 276.433L26.195 276.455C27.5395 290.028 37.3902 300.96 50.7846 301.465L50.8149 301.494H247.721C247.815 301.495 247.908 301.496 248.001 301.496C248.094 301.496 248.188 301.495 248.281 301.494H248.7L248.709 301.486C262.337 301.114 273.376 290.029 274.542 276.288L274.548 276.282L274.557 276.097C274.568 275.952 274.579 275.809 274.588 275.664C274.61 275.318 274.624 274.973 274.629 274.63L284.285 78.8H284.278C284.284 78.7016 284.286 78.602 284.286 78.5024Z" fill="#EE4D2D"/>
</svg>
