<svg width="48" height="48" viewBox="0 0 48 48" fill="none" xmlns="http://www.w3.org/2000/svg">
<path d="M8.74227 8.11768L4 46.9412H44L38.6392 8.11768H8.74227Z" fill="#FF3D8B"/>
<path fill-rule="evenodd" clip-rule="evenodd" d="M16.7159 5.89108C15.0413 6.8332 14.438 7.88779 14.438 8.7059C14.438 9.524 15.0413 10.5786 16.7159 11.5207C18.3456 12.4376 20.7092 13.0574 23.4115 13.0574C26.1138 13.0574 28.4775 12.4376 30.1072 11.5207C31.7817 10.5786 32.3851 9.524 32.3851 8.7059C32.3851 7.88779 31.7817 6.8332 30.1072 5.89108C28.4775 4.97417 26.1138 4.35443 23.4115 4.35443C20.7092 4.35443 18.3456 4.97417 16.7159 5.89108ZM15.0271 3.03648C17.2567 1.78209 20.2247 1.05884 23.4115 1.05884C26.5984 1.05884 29.5664 1.78209 31.796 3.03648C33.9807 4.26567 35.7645 6.2107 35.7645 8.7059C35.7645 11.2011 33.9807 13.1461 31.796 14.3753C29.5664 15.6297 26.5984 16.353 23.4115 16.353C20.2247 16.353 17.2567 15.6297 15.0271 14.3753C12.8423 13.1461 11.0586 11.2011 11.0586 8.7059C11.0586 6.2107 12.8423 4.26567 15.0271 3.03648Z" fill="#FF3D8B"/>
<path d="M25.2186 11.647L15.0131 27.5396L22.8799 29.81L14.5879 46.9411L32.2349 27.1268L21.6042 24.0309L25.2186 11.647Z" fill="white"/>
</svg>
